PathFileType	4	(X/Y/Z)	T1_P2_NoVision_NoMovement_0_0-723.trc
DataRate	CameraRate	NumFrames	NumMarkers	Units	OrigDataRate	OrigDataStartFrame	OrigNumFrames
60	60	5	27	m	60	451	723
Frame#	Time	RHip			RKnee			RAnkle			RBigToe			RSmallToe			RHeel			LHip			LKnee			LAnkle			LBigToe			LSmallToe			LHeel			Neck			Head			Nose			RShoulder			RElbow			RWrist			RThumb			RIndex			RPinky			LShoulder			LElbow			LWrist			LThumb			LIndex			LPinky		
		X1	Y1	Z1	X2	Y2	Z2	X3	Y3	Z3	X4	Y4	Z4	X5	Y5	Z5	X6	Y6	Z6	X7	Y7	Z7	X8	Y8	Z8	X9	Y9	Z9	X10	Y10	Z10	X11	Y11	Z11	X12	Y12	Z12	X13	Y13	Z13	X14	Y14	Z14	X15	Y15	Z15	X16	Y16	Z16	X17	Y17	Z17	X18	Y18	Z18	X19	Y19	Z19	X20	Y20	Z20	X21	Y21	Z21	X22	Y22	Z22	X23	Y23	Z23	X24	Y24	Z24	X25	Y25	Z25	X26	Y26	Z26	X27	Y27	Z27
452	7.533333333333333	460.6111270728679	3647.7362895728797	536.0712108429007	855.1462216012819	3681.3002014936956	534.6737702361352	1259.4075087814645	3792.108769522015	629.5862441915591	1310.2830841702234	3594.7884743948034	542.5227271001198	1317.5174272489007	3695.024247168299	524.3448217790877	1296.7838736347528	3778.2176091054557	633.6956795637764	448.1709700483718	3503.437967220863	726.2886157084001	863.3341360055878	3557.6462845903284	737.2801166235956	1236.1217640833975	3602.741936844785	729.6540881782158	1316.7374212630446	3521.8167064190066	674.5729918358797	1278.4423660190844	3458.946252771913	712.0345707887113	1274.5197019385123	3617.9472060680446	717.9225868197095	-104.19232004111032	3546.6757912984394	623.0164722815202	-358.101824722932	3396.7255812023163	514.1163847478879	-208.2131108754638	3388.3776805134007	508.0354818397341	-23.487230983512568	3708.786987489093	487.6795587580221	197.74413429956746	3683.4172501826006	413.9173872458098	444.93975662697846	3651.153614734632	382.4143359724401	578.490654127478	3590.7043817858575	396.49934343788476	604.8441266380772	3635.790852380918	396.38452490098183	595.4808868948484	3679.0698813751387	382.98365540142373	-27.689212577617358	3471.76489952819	747.9569808181195	212.87730683065098	3414.2316798535935	811.5543818258652	459.4217526530873	3414.8179038048543	812.6624195598504	556.2962678753953	3369.9224175689437	708.7704309119221	581.9775208796389	3386.4795558445976	763.9009255056544	585.9671240453345	3367.905974652495	809.2624276472475
453	7.55	466.2636548963659	3651.5646757368663	537.2299451436307	864.1488255789873	3692.5834278692446	545.4204504738121	1259.5360971937162	3792.534793490551	629.8890746217064	1318.039758854849	3610.4837584984575	555.7587564627555	1317.877755427927	3695.637164218584	525.0310731169895	1296.8382685628158	3778.2646597483226	633.6526504349756	453.97009541593644	3507.047405584586	727.6848321312884	872.6178234200571	3556.7849607681537	735.8449045599622	1236.0940118751857	3602.838016038509	729.7364780609521	1315.8312614981926	3518.4297246892747	677.9246420812087	1278.0078514100028	3456.2396681318255	716.0433439921619	1272.0431458735616	3623.4138897635266	720.9058106312613	-104.07655923832291	3546.460975129368	622.9345158274796	-358.01311365770545	3396.703552635044	514.1941277445637	-208.1384138089406	3386.928895125048	512.1084878072023	-23.80513100717063	3687.7763442069245	483.2184804866924	203.20058297660185	3698.9979932021583	415.85037648063087	448.3113863500649	3646.6338113339507	380.3351735308934	578.3343055316919	3590.2115509169575	396.3098455719792	600.9515097234923	3616.1761499163645	392.0268095540975	595.2636176731519	3678.5524132039704	382.92714278510994	-27.595782731891784	3471.5847166528715	747.8516770379265	213.11422156186157	3414.0229464857225	811.4791657581125	467.3066272369699	3411.9960704631444	811.0872016170969	556.3689142728138	3369.9377459434863	708.739577620554	582.0302024533463	3386.581610179443	763.8781007953547	586.0385388364906	3367.7938250760217	809.2485500491715
454	7.566666666666666	471.4617421611164	3653.464751093169	538.3113121844942	870.8092410382193	3697.044580138942	546.7118764911847	1265.5610827584378	3794.470297135913	631.4291540271034	1322.5683325743748	3616.897832442955	549.1513198646211	1323.4382533752612	3697.055359495895	525.9447341874477	1296.9955142510419	3777.960863817794	633.4003480993437	454.0546264354936	3507.1450633738273	727.8337429233061	877.9054009097243	3558.326107715645	737.1033654282533	1242.8735899627852	3609.511722784251	726.5652335393223	1317.9984072145846	3513.1982358871146	675.1486078019079	1277.9909211730637	3455.975416582776	715.8947491947067	1274.8251036467161	3617.674603272634	717.4179746344773	-104.05191002206914	3546.6414284672037	622.9940310433036	-353.9506497842711	3397.675903672366	514.3580920696462	-208.02679024668672	3386.944959060395	512.3047411647094	-23.542051200345714	3709.1196683862117	487.96742954457585	203.15786301374044	3699.0546545868256	415.8720382112612	444.813501844738	3651.107581796201	382.43668713819045	572.8903846381004	3588.6345516166493	395.6052346701232	604.5329373043506	3635.4579146936267	396.3775819936978	595.3085487357278	3678.6466713290542	382.86808895794564	-27.659741430901565	3471.535356936252	747.8154578338892	212.92749244371896	3414.1336147087954	811.5465332612529	459.33353327924954	3414.7161221967413	812.5945713521584	556.4450589480892	3370.078764963991	708.822483522867	582.0636528784609	3386.8215701019926	764.1234763241507	582.2021441612662	3348.5953851693816	802.6881478044058
455	7.583333333333333	471.5978694029319	3653.3373633948977	538.2544123490397	879.2028169288951	3693.7255712896736	545.2761376777156	1266.1019700758734	3794.9957722704426	631.7891911618282	1314.1985843520645	3596.235009880969	538.7842414324856	1323.2519911251457	3698.589062836277	521.7644029319165	1297.4138502539658	3778.942703992132	634.0916299413117	454.20042485606353	3507.1051047270635	727.7198332300247	877.6084329056057	3557.9142515879525	736.9039310650829	1242.9474350883836	3609.891619432096	726.7360314682801	1318.9026674189533	3517.1777994860386	672.093508197899	1278.1536240375997	3456.1142818756184	715.927664598252	1275.2098989012072	3620.664334455879	712.9104185319387	-104.11810109991248	3546.5098047944666	622.9225278684518	-358.00785066671307	3396.7097161902348	514.2080427673793	-208.08087153999466	3386.879265856494	512.3399335602488	-23.540715363386123	3709.1700539893154	487.9827204295532	199.22515350499182	3703.368674656452	417.90823111176064	439.507153498991	3647.523945532483	381.5855947536876	578.2865418119937	3590.7355764620606	396.7394418609107	600.9319270850577	3616.6655453434755	392.2903274380329	589.4709876755479	3674.6762111555895	381.83430892740097	-27.714394779868837	3471.4682467927373	747.7721179148973	212.89463780805517	3414.173750945648	811.6593903570482	459.2260444579657	3414.698172269881	812.486979014093	556.3860433805376	3370.196299356818	708.9152914687579	585.6500966650691	3388.068675601652	765.0691965695015	582.1168878577398	3348.6312968957805	802.6444983762424
456	7.6	475.43200007722896	3648.871256583957	536.0901251938482	875.9417964269007	3699.0870124944436	548.0323870617618	1259.5192957645309	3792.5104498881083	629.8828147405562	1317.9027068453106	3610.2978566746733	555.667325149384	1317.732632866129	3695.5419219231403	524.9584576425013	1294.2571195713213	3784.4054000030915	636.9938295053826	454.3451612606273	3507.3699046883	727.905983011339	877.6820414080908	3558.32300419356	736.9927650467681	1236.1474777420246	3602.956591067903	729.6995107541337	1324.2565514063638	3542.3103270839124	680.2311341906507	1278.0547587569151	3456.411993769842	716.0843916695799	1272.0320419798327	3623.3294602976525	720.6228737670037	-104.19786341671765	3546.6513121389703	622.9948775711403	-358.02272239496153	3396.797338207625	514.2737145625435	-208.1701176403606	3386.850415759469	512.3223436995189	-23.4812371579798	3709.1483981266656	487.97919326310074	203.15481581902964	3698.95294630797	415.87290734854844	439.59279064162376	3647.6170535191377	381.64358323605916	578.1499263607119	3586.6748682400507	400.66819755572743	601.1790770727082	3616.7735369330117	392.41370422223855	595.491964275692	3678.6522356395126	382.8744099388161	-27.665204242890127	3471.524671742537	747.7611670713554	212.57343812377394	3410.9633724498153	814.9047212328785	459.20316542305665	3414.7118711981857	812.490431929744	556.1686690980814	3370.2838976802773	708.8851198238389	581.844947783789	3386.8634717804716	763.7192058071021	582.130594636101	3348.7351790646353	802.6413582031504
